<?xml version="1.0" encoding="utf-8"?>
<!-- Generator: Adobe Illustrator 16.0.0, SVG Export Plug-In . SVG Version: 6.00 Build 0)  -->
<!DOCTYPE svg PUBLIC "-//W3C//DTD SVG 1.1//EN" "http://www.w3.org/Graphics/SVG/1.1/DTD/svg11.dtd">
<svg version="1.1" id="Laag_1" xmlns="http://www.w3.org/2000/svg" xmlns:xlink="http://www.w3.org/1999/xlink" x="0px" y="0px"
	 width="4460px" height="2561px" viewBox="0 0 4460 2561" enable-background="new 0 0 4460 2561" xml:space="preserve">
<g>
	<path fill="#A98431" d="M5,466.678v838.516h144.247V548.799C365.416,424.99,581.6,299.941,797.777,174.49
		c118.892,69.475,239.046,139.345,359.161,208.805v165.497c-120.115-68.228-240.27-137.718-359.161-207.178
		c-71.945,41.681-143.875,83.368-216.192,125.049v838.523h719.607V799.299l144.271,83.36v566.782H437.338V548.799l-144.254,83.779
		v961.117h1296.604V799.299l-288.494-166.721V299.941C1132.838,202.284,964.901,106.254,797.777,9
		C533.787,160.597,269.393,313.835,5,466.678 M149.247,1449.441H5v144.262h144.247V1449.441z M1445.463,383.302v165.497
		l144.239,83.779v-165.9l-107.477-63.356L1445.463,383.302z M725.832,548.799l71.945-40.457
		c118.892,68.259,239.046,138.121,359.161,207.596v445H725.832V548.799L725.832,548.799z"/>
</g>
<rect x="2251.863" y="2402.695" fill="#A98431" width="144.277" height="144.256"/>
<g>
	<path fill="#010202" d="M2047.954,2547.57h22.381v-280.99h104.976v-20.229h-232.355v20.229h104.999V2547.57z M1643.062,2547.57
		h22.381v-124.785h97.664h0.868l95.976,124.785h28.391l-99.384-128.658c12.601-1.719,24.294-4.816,35.059-9.262
		c10.749-4.422,20.058-10.229,27.957-17.424c7.9-7.188,14.064-15.699,18.51-25.596c4.453-9.912,6.66-21.158,6.66-33.781v-0.875
		c0-10.881-1.99-21.158-6.018-30.744c-4.019-9.635-9.603-18.008-16.758-25.186c-9.2-9.184-20.964-16.418-35.307-21.723
		c-14.334-5.297-30.83-7.977-49.486-7.977h-126.497v301.225H1643.062z M1665.435,2402.557V2266.58h102.845
		c27.531,0,48.836,5.91,63.891,17.705c15.063,11.795,22.567,27.902,22.567,48.355v0.852c0,10.943-2.207,20.662-6.66,29.143
		c-4.453,8.473-10.525,15.682-18.277,21.584c-7.745,5.887-16.999,10.439-27.749,13.6c-10.764,3.158-22.481,4.738-35.082,4.738
		H1665.435z M1344.461,2547.57h216.433v-20.213h-194.074v-121.354h172.568v-20.236h-172.568v-119.172h191.906v-20.236h-214.264
		V2547.57L1344.461,2547.57z M1023.457,2547.57h130.57c16.317,0,31.07-1.912,44.259-5.785c13.166-3.871,24.472-9.316,33.921-16.34
		c9.448-6.994,16.743-15.598,21.893-25.773c5.158-10.145,7.744-21.529,7.744-34.137v-0.854c0-10.314-1.874-19.414-5.591-27.275
		c-3.718-7.885-8.651-14.746-14.807-20.615c-6.181-5.869-13.383-10.748-21.692-14.621c-8.302-3.873-16.898-6.932-25.789-9.217
		c6.01-2.594,12.104-5.822,18.262-9.695c6.133-3.902,11.655-8.705,16.534-14.451c4.833-5.746,8.79-12.529,11.787-20.275
		c2.989-7.736,4.507-16.797,4.507-27.15v-0.852c0-18.695-6.443-34.51-19.322-47.443c-8.302-8.316-19.113-14.846-32.418-19.617
		c-13.32-4.754-28.577-7.123-45.77-7.123h-124.096v301.225H1023.457z M1045.837,2385.768v-119.172h101.544
		c24.395,0,43.02,5.143,55.938,15.389c12.917,10.262,19.361,23.752,19.361,40.559v0.852c0,10.098-1.937,19.066-5.809,26.873
		c-3.88,7.799-9.239,14.271-16.132,19.516c-6.885,5.174-15.063,9.152-24.534,11.902c-9.464,2.719-19.787,4.105-30.993,4.105h-99.376
		V2385.768z M1045.837,2527.357v-121.354h101.994c29.816,0,52.545,5.119,68.189,15.334c15.62,10.223,23.465,24.682,23.465,43.406
		v0.852c0,18.99-7.636,34.045-22.83,45.119c-15.218,11.098-35.71,16.65-61.529,16.65h-109.289V2527.357z M639.637,2547.57h21.514
		v-261.627l119.201,173.418h1.727l119.179-173.418v261.627h22.366v-301.219h-21.065l-120.929,178.16l-120.905-178.16h-21.088
		V2547.57z M263.577,2547.57h23.233l38.304-84.336h177.695l38.296,84.336h24.534l-140.274-303.348h-21.537L263.577,2547.57z
		 M334.57,2442.998l79.589-174.264l79.187,174.264H334.57z M12.713,2547.57h199.232v-20.213H35.11v-281.006H12.713V2547.57z"/>
	<path fill="#010202" d="M4171.852,2117.27h73.393v-129.152h159.186v-66.727h-159.186v-71.016h180.639v-66.734h-254.031V2117.27z
		 M3974.035,2122.041c36.244,0,66.262-10.479,86.738-30.963c20.035-20.043,31.48-49.58,31.48-89.139v-218.314h-75.314v214.994
		c0,38.598-17.145,55.293-44.801,55.293c-23.373,0-41.936-12.406-61.025-33.379l-46.234,51.463
		C3887.764,2099.148,3922.07,2122.041,3974.035,2122.041 M3736.672,2117.27h73.393v-333.645h-73.393V2117.27z M3457.369,1945.701
		v-95.799h72.945c35.74,0,57.656,16.186,57.656,47.645v0.943c0,28.168-20.484,47.219-56.256,47.219h-74.346V1945.701z
		 M3383.969,2117.27h73.4v-106.75h56.729h0.953l71.496,106.75h85.807l-81.51-119.141c42.4-15.744,71.48-49.586,71.48-103.434v-0.951
		c0-31.467-10.012-57.674-28.576-76.275c-21.939-21.916-54.83-33.844-97.262-33.844h-152.525v333.645H3383.969z M3079.893,2051.023
		v-201.121h56.721c60.041,0,100.545,41.449,100.545,100.553v0.984c0,59.088-40.504,99.592-100.545,99.592h-56.721V2051.023z
		 M3006.477,2117.27h130.137c104.844,0,177.291-72.898,177.291-166.814v-0.943c0-93.902-72.447-165.887-177.291-165.887h-130.137
		V2117.27z M2682.373,2117.27h254.031v-65.301h-181.102v-70.07h157.287v-65.285h-157.287v-67.688h178.74v-65.301h-251.686v333.645
		H2682.373z M2404.984,2052.914v-73.371h84.84c37.639,0,54.326,13.801,54.326,36.197v0.977c0,24.781-19.545,36.197-51.963,36.197
		H2404.984z M2404.984,1918.533v-70.551h72.449c30.979,0,48.131,12.391,48.131,34.322v0.961c0,24.781-20.482,35.275-52.893,35.275
		h-67.688V1918.533z M2333.504,2117.27h158.684c75.338,0,124.9-30.512,124.9-91.484v-0.982c0-44.795-23.838-67.191-62.441-81.967
		c23.828-13.344,43.871-34.309,43.871-71.969v-0.953c0-22.893-7.652-41.479-22.885-56.734c-19.09-19.068-49.123-29.555-87.24-29.555
		h-154.889V2117.27L2333.504,2117.27z M1952.047,2117.27h72.433v-212.072l161.587,212.072h62.605v-333.645h-72.619v205.451
		l-156.32-205.451h-67.686V2117.27z M1627.914,2117.27h254.062v-65.301h-181.118v-70.07h157.281v-65.285h-157.281v-67.688h178.732
		v-65.301h-251.677V2117.27z M1436.805,2122.041c71.969,0,122.478-37.174,122.478-103.434v-0.953
		c0-58.152-38.125-82.455-105.812-100.082c-57.673-14.791-71.969-21.932-71.969-43.879v-0.945c0-16.209,14.769-29.088,42.881-29.088
		c28.135,0,57.2,12.391,86.76,32.898l38.125-55.295c-33.843-27.166-75.299-42.4-123.91-42.4
		c-68.151,0-116.785,40.016-116.785,100.545v0.992c0,66.238,43.369,84.824,110.59,101.977c55.76,14.297,67.198,23.822,67.198,42.41
		v0.975c0,19.539-18.122,31.465-48.124,31.465c-38.149,0-69.599-15.744-99.639-40.525l-43.369,51.934
		C1335.284,2104.414,1386.273,2122.041,1436.805,2122.041 M1131.762,2122.041c71.961,0,122.493-37.174,122.493-103.434v-0.953
		c0-58.152-38.148-82.455-105.812-100.082c-57.672-14.791-71.992-21.932-71.992-43.879v-0.945c0-16.209,14.792-29.088,42.904-29.088
		s57.2,12.391,86.761,32.898l38.125-55.295c-33.843-27.166-75.322-42.4-123.926-42.4c-68.182,0-116.77,40.016-116.77,100.545v0.992
		c0,66.238,43.369,84.824,110.575,101.977c55.759,14.297,67.19,23.822,67.19,42.41v0.975c0,19.539-18.099,31.465-48.139,31.465
		c-38.133,0-69.591-15.744-99.593-40.525l-43.4,51.934C1030.217,2104.414,1081.245,2122.041,1131.762,2122.041 M787.152,2122.52
		c89.603,0,146.33-49.562,146.33-150.627v-188.268h-73.409v191.148c0,52.895-27.175,80.076-71.977,80.076
		c-44.809,0-71.977-28.127-71.977-82.479v-188.746h-73.385v190.668C642.735,2072.477,697.549,2122.52,787.152,2122.52
		 M357.694,2117.27h239.759v-66.703H431.112v-266.941h-73.417V2117.27z M5,2117.27h73.394v-101.994l38.622-40.037l103.441,142.031
		h88.162l-142.04-192.076l135.844-141.568h-88.658L78.394,1929.492v-145.867H5V2117.27z"/>
</g>
</svg>
