<?xml version="1.0" encoding="utf-8"?>
<!-- Generator: Adobe Illustrator 16.0.0, SVG Export Plug-In . SVG Version: 6.00 Build 0)  -->
<!DOCTYPE svg
          PUBLIC "-//W3C//DTD SVG 1.1//EN" "http://www.w3.org/Graphics/SVG/1.1/DTD/svg11.dtd">
<svg version="1.1"
     id="Laag_1"
     xmlns="http://www.w3.org/2000/svg"
     xmlns:xlink="http://www.w3.org/1999/xlink"
     x="0px"
     y="0px"
     width="9750px"
     height="9910px"
     viewBox="0 0 9750 9910"
     enable-background="new 0 0 9750 9910"
     xml:space="preserve">
    <g>
        <path fill="#b4934e"
              d="M0,2810.797v5149.82h885.906V3315.243c1327.617-760.422,2655.227-1528.383,3982.836-2298.844
		c730.305,426.641,1468.133,855.789,2205.977,1282.43v1016.414c-737.844-419.109-1475.672-845.75-2205.977-1272.391
		c-441.711,255.977-883.398,511.969-1327.609,767.945v5149.82h4419.492V4853.649l885.922,511.984v3480.875H2655.211V3315.243
		l-1055.914,606.281V9902.43h8133.125V4853.649L7960.625,3829.711V1786.86C6926.648,1187.047,5895.172,597.282,4868.742,0
		C3247.5,931.071,1623.75,1872.188,0,2810.797 M885.906,9016.508H0v885.922h885.906V9016.508z M8846.531,2298.829v1016.414
		l885.898,514.469V2810.797l-660.039-388.984L8846.531,2298.829z M4427.031,3315.243l441.711-248.453
		c730.305,419.109,1468.133,848.258,2205.977,1274.898v2733.007H4427.031V3315.243z" />
    </g>
    <rect x="8864.094"
          y="0.008"
          fill="#b4934e"
          width="885.906"
          height="885.914" />
</svg>